<?xml version="1.0" standalone="no"?>
<!DOCTYPE svg PUBLIC "-//W3C//DTD SVG 20010904//EN"
 "http://www.w3.org/TR/2001/REC-SVG-20010904/DTD/svg10.dtd">
<svg version="1.0" xmlns="http://www.w3.org/2000/svg"
 width="250.000000pt" height="250.000000pt" viewBox="0 0 250.000000 250.000000"
 preserveAspectRatio="xMidYMid meet">
<metadata>
Created by potrace 1.14, written by Peter Selinger 2001-2017
</metadata>
<g transform="translate(0.000000,250.000000) scale(0.100000,-0.100000)"
fill="#000000" stroke="none">
<path d="M515 1732 c-281 -30 -480 -303 -421 -580 66 -315 401 -477 692 -335
33 16 87 56 124 92 60 59 63 64 46 77 -17 12 -21 10 -40 -14 -55 -70 -152
-132 -244 -157 -28 -7 -83 -11 -125 -9 -329 15 -529 376 -366 660 98 171 313
263 500 214 70 -18 163 -75 212 -130 39 -43 46 -48 62 -36 16 11 13 17 -36 68
-109 111 -257 166 -404 150z"/>
<path d="M1500 1248 c0 -440 1 -448 20 -448 12 0 20 7 21 18 0 9 1 189 1 400
1 305 3 381 13 370 7 -7 50 -85 96 -173 205 -397 195 -379 222 -380 l25 -2
-23 41 c-12 23 -54 102 -93 176 -39 74 -98 187 -132 250 -33 63 -70 134 -82
156 -16 32 -26 41 -44 40 l-24 -1 0 -447z"/>
<path d="M1596 1693 c-3 -3 5 -24 18 -47 13 -22 49 -90 81 -151 166 -319 241
-455 253 -460 35 -13 28 15 -32 128 -71 136 -113 216 -206 392 -34 66 -67 124
-71 129 -10 11 -35 16 -43 9z"/>
<path d="M1687 1694 c-4 -4 20 -57 52 -118 112 -211 202 -381 243 -461 62
-122 69 -119 170 75 45 85 99 187 120 225 21 39 53 99 71 135 l32 65 3 -407
c2 -400 3 -408 22 -408 20 0 20 8 20 449 l0 448 -22 -1 c-24 -1 -31 -12 -180
-296 -79 -150 -137 -258 -156 -292 l-16 -27 -54 102 c-29 56 -89 170 -132 254
-140 267 -149 281 -173 257z"/>
<path d="M2166 1637 c-18 -34 -55 -102 -81 -152 -26 -49 -63 -117 -81 -150
-27 -51 -31 -63 -21 -82 11 -19 23 -1 129 196 64 120 118 223 120 230 2 7 -5
15 -15 16 -12 2 -27 -15 -51 -58z"/>
<path d="M2255 1634 c-203 -371 -238 -444 -228 -467 9 -19 13 -15 46 41 20 35
37 65 37 67 0 2 31 61 69 132 83 156 142 270 144 279 1 4 -6 8 -16 10 -12 1
-27 -17 -52 -62z"/>
<path d="M454 1641 c-141 -47 -235 -141 -275 -273 -98 -323 216 -618 531 -499
61 23 142 81 174 124 17 24 18 29 6 37 -10 6 -28 -4 -65 -39 -64 -60 -113 -86
-193 -101 -291 -52 -519 246 -394 515 107 227 396 281 582 108 53 -49 80 -60
80 -32 0 5 -18 29 -40 53 -40 43 -129 97 -185 111 -60 15 -171 13 -221 -4z"/>
<path d="M466 1566 c-211 -79 -292 -318 -170 -501 84 -128 261 -181 398 -121
50 22 146 98 146 116 0 4 -7 11 -16 14 -10 4 -33 -10 -66 -39 -140 -126 -364
-85 -448 82 -18 35 -26 69 -28 123 -4 69 -1 80 30 140 57 110 165 169 283 155
74 -8 118 -28 171 -77 28 -26 49 -38 60 -34 33 13 -55 97 -141 135 -46 20
-173 24 -219 7z"/>
<path d="M472 1482 c-210 -84 -202 -397 12 -468 56 -19 148 -14 195 11 41 21
91 65 91 80 0 24 -28 24 -51 -2 -107 -114 -299 -71 -349 78 -30 88 -13 156 56
223 76 74 201 74 282 2 36 -33 62 -37 62 -11 0 18 -56 64 -105 86 -50 23 -136
24 -193 1z"/>
<path d="M2317 1455 c-15 -31 -17 -76 -17 -345 0 -303 0 -310 20 -310 20 0 20
7 20 345 0 190 -1 345 -3 345 -2 0 -11 -16 -20 -35z"/>
<path d="M1580 1140 c0 -333 0 -340 20 -340 20 0 20 7 20 310 0 259 -3 316
-15 340 -9 17 -18 30 -20 30 -3 0 -5 -153 -5 -340z"/>
<path d="M1659 1325 c-1 -21 -1 -478 0 -507 1 -11 9 -18 21 -18 19 0 20 7 20
235 0 216 -2 238 -20 272 -15 28 -20 33 -21 18z"/>
<path d="M2238 1303 c-11 -29 -14 -90 -14 -268 1 -211 2 -230 19 -233 11 -2
17 3 18 15 3 65 0 515 -4 519 -2 3 -11 -12 -19 -33z"/>
<path d="M1735 995 c0 -189 1 -195 20 -195 19 0 20 6 20 163 -1 134 -4 168
-18 195 -10 17 -19 32 -20 32 -2 0 -3 -88 -2 -195z"/>
<path d="M2158 1153 c-11 -20 -14 -71 -14 -188 1 -152 2 -160 21 -163 19 -3
20 3 20 182 0 101 -3 187 -7 191 -3 4 -13 -6 -20 -22z"/>
</g>
</svg>
